<mxfile host="65bd71144e">
    <diagram id="BRoRgIIWu08ZEDgPrzP9" name="Page-1">
        <mxGraphModel dx="754" dy="561" grid="1" gridSize="10" guides="1" tooltips="1" connect="1" arrows="1" fold="1" page="1" pageScale="1" pageWidth="1100" pageHeight="1700" math="0" shadow="0">
            <root>
                <mxCell id="0"/>
                <mxCell id="1" parent="0"/>
                <mxCell id="2" value="Comments" style="text;strokeColor=none;fillColor=none;html=1;fontSize=20;fontStyle=0;verticalAlign=middle;align=center;" parent="1" vertex="1">
                    <mxGeometry x="220" y="10" width="220" height="40" as="geometry"/>
                </mxCell>
                <mxCell id="4" value="Comments" style="swimlane;fontSize=16;startSize=30;fontStyle=0;fillColor=#FFFF99;fontColor=#000000;strokeColor=#B09500;" parent="1" vertex="1">
                    <mxGeometry x="40" y="70" width="300" height="400" as="geometry"/>
                </mxCell>
                <mxCell id="5" value="&amp;nbsp;&lt;font color=&quot;#795e26&quot;&gt;NewComment&lt;/font&gt;&lt;span style=&quot;background-color: rgb(255 , 255 , 255) ; font-family: &amp;#34;consolas&amp;#34; , &amp;#34;courier new&amp;#34; , monospace ; font-size: 14px&quot;&gt;&amp;nbsp;= ({&lt;/span&gt;&lt;span style=&quot;color: rgb(121 , 94 , 38) ; background-color: rgb(255 , 255 , 255) ; font-family: &amp;#34;consolas&amp;#34; , &amp;#34;courier new&amp;#34; , monospace ; font-size: 14px&quot;&gt;onAddComment}&lt;/span&gt;&lt;span style=&quot;background-color: rgb(255 , 255 , 255) ; font-family: &amp;#34;consolas&amp;#34; , &amp;#34;courier new&amp;#34; , monospace ; font-size: 14px&quot;&gt;)&lt;br style=&quot;font-size: 14px&quot;&gt;&lt;/span&gt;&amp;nbsp; &amp;nbsp; &amp;nbsp; &amp;nbsp;&amp;lt;form&amp;nbsp;&lt;span style=&quot;font-family: &amp;#34;consolas&amp;#34; , &amp;#34;courier new&amp;#34; , monospace ; font-size: 14px ; color: rgb(255 , 0 , 0)&quot;&gt;onSubmit&lt;/span&gt;&lt;span style=&quot;background-color: rgb(255 , 255 , 255) ; font-family: &amp;#34;consolas&amp;#34; , &amp;#34;courier new&amp;#34; , monospace ; font-size: 14px&quot;&gt;=&lt;/span&gt;&lt;span style=&quot;font-family: &amp;#34;consolas&amp;#34; , &amp;#34;courier new&amp;#34; , monospace ; font-size: 14px ; color: rgb(0 , 0 , 255)&quot;&gt;{&lt;/span&gt;&lt;span style=&quot;font-family: &amp;#34;consolas&amp;#34; , &amp;#34;courier new&amp;#34; , monospace ; font-size: 14px ; color: rgb(121 , 94 , 38)&quot;&gt;handleSubmit&lt;/span&gt;&lt;span style=&quot;font-family: &amp;#34;consolas&amp;#34; , &amp;#34;courier new&amp;#34; , monospace ; font-size: 14px ; color: rgb(0 , 0 , 255)&quot;&gt;}&lt;/span&gt;&lt;span style=&quot;font-size: 14px&quot;&gt;&amp;gt;&lt;/span&gt;&lt;br style=&quot;font-size: 14px&quot;&gt;&amp;nbsp; &amp;nbsp; &amp;nbsp; &amp;nbsp; &amp;nbsp; &amp;nbsp; handleSubmit(ev)&amp;nbsp;&lt;br style=&quot;font-size: 14px&quot;&gt;&amp;nbsp; &amp;nbsp; &amp;nbsp; &amp;nbsp; &amp;nbsp; &amp;nbsp; &amp;nbsp; &amp;nbsp; &amp;nbsp;&amp;nbsp;&lt;span style=&quot;font-family: &amp;#34;consolas&amp;#34; , &amp;#34;courier new&amp;#34; , monospace ; color: rgb(121 , 94 , 38) ; font-size: 14px&quot;&gt;onAddComment&lt;/span&gt;&lt;span style=&quot;background-color: rgb(255 , 255 , 255) ; font-family: &amp;#34;consolas&amp;#34; , &amp;#34;courier new&amp;#34; , monospace ; font-size: 14px&quot;&gt;(&lt;/span&gt;&lt;span style=&quot;font-family: &amp;#34;consolas&amp;#34; , &amp;#34;courier new&amp;#34; , monospace ; color: rgb(0 , 112 , 193) ; font-size: 14px&quot;&gt;commentObj&lt;/span&gt;&lt;span style=&quot;background-color: rgb(255 , 255 , 255) ; font-family: &amp;#34;consolas&amp;#34; , &amp;#34;courier new&amp;#34; , monospace ; font-size: 14px&quot;&gt;)&lt;br&gt;&lt;br&gt;&lt;br&gt;&lt;br&gt;&lt;br&gt;&lt;/span&gt;" style="text;html=1;strokeColor=#82b366;fillColor=#E6FFCC;align=left;verticalAlign=middle;whiteSpace=wrap;rounded=0;fontSize=14;fontStyle=0" parent="4" vertex="1">
                    <mxGeometry y="30" width="300" height="140" as="geometry"/>
                </mxCell>
                <mxCell id="6" value="Submit" style="rounded=1;whiteSpace=wrap;html=1;fontSize=14;strokeColor=#2D7600;fillColor=#60a917;fontColor=#ffffff;" vertex="1" parent="4">
                    <mxGeometry x="50" y="110" width="70" height="20" as="geometry"/>
                </mxCell>
                <mxCell id="7" value="&amp;nbsp;CommentList = ()&amp;nbsp;&lt;br style=&quot;font-size: 14px&quot;&gt;&amp;nbsp; &amp;nbsp; &amp;nbsp; &amp;nbsp;comment by &amp;lt;address&amp;gt;Pupsik&lt;br style=&quot;font-size: 14px&quot;&gt;&amp;nbsp; &amp;nbsp; &amp;nbsp; &amp;nbsp;comment by &amp;lt;address&amp;gt;Perchik&lt;br style=&quot;font-size: 14px&quot;&gt;&amp;nbsp; &amp;nbsp; &amp;nbsp; &amp;nbsp;..." style="text;html=1;strokeColor=#b85450;fillColor=#FFCCFF;align=left;verticalAlign=middle;whiteSpace=wrap;rounded=0;fontSize=14;" vertex="1" parent="4">
                    <mxGeometry y="170" width="300" height="70" as="geometry"/>
                </mxCell>
                <mxCell id="9" value="&lt;div style=&quot;background-color: rgb(255 , 255 , 255) ; font-family: &amp;#34;consolas&amp;#34; , &amp;#34;courier new&amp;#34; , monospace ; font-size: 14px ; line-height: 19px&quot;&gt;&lt;span style=&quot;color: #795e26&quot;&gt;&amp;nbsp;addCommentHandler&lt;/span&gt; = (&lt;span style=&quot;color: #001080&quot;&gt;commentObj&lt;/span&gt;)&lt;/div&gt;&lt;div style=&quot;background-color: rgb(255 , 255 , 255) ; font-family: &amp;#34;consolas&amp;#34; , &amp;#34;courier new&amp;#34; , monospace ; font-size: 14px ; line-height: 19px&quot;&gt;&lt;br&gt;&lt;/div&gt;&lt;div style=&quot;background-color: rgb(255 , 255 , 255) ; font-family: &amp;#34;consolas&amp;#34; , &amp;#34;courier new&amp;#34; , monospace ; font-size: 14px ; line-height: 19px&quot;&gt;&lt;span style=&quot;color: rgb(121 , 94 , 38)&quot;&gt;&amp;nbsp;toggleCommentsHandler&lt;/span&gt;&lt;span&gt; = () {&lt;/span&gt;&amp;nbsp;&lt;br&gt;&lt;/div&gt;&lt;div style=&quot;background-color: rgb(255 , 255 , 255) ; font-family: &amp;#34;consolas&amp;#34; , &amp;#34;courier new&amp;#34; , monospace ; font-size: 14px ; line-height: 19px&quot;&gt;&amp;nbsp; &amp;nbsp;&amp;nbsp;&lt;span style=&quot;font-family: &amp;#34;consolas&amp;#34; , &amp;#34;courier new&amp;#34; , monospace ; color: rgb(121 , 94 , 38)&quot;&gt;setShowComments&lt;/span&gt;&lt;span style=&quot;font-family: &amp;#34;consolas&amp;#34; , &amp;#34;courier new&amp;#34; , monospace&quot;&gt;((&lt;/span&gt;&lt;span style=&quot;font-family: &amp;#34;consolas&amp;#34; , &amp;#34;courier new&amp;#34; , monospace ; color: rgb(0 , 16 , 128)&quot;&gt;x&lt;/span&gt;&lt;span style=&quot;font-family: &amp;#34;consolas&amp;#34; , &amp;#34;courier new&amp;#34; , monospace&quot;&gt;) &lt;/span&gt;&lt;span style=&quot;font-family: &amp;#34;consolas&amp;#34; , &amp;#34;courier new&amp;#34; , monospace ; color: rgb(0 , 0 , 255)&quot;&gt;=&amp;gt;&lt;/span&gt;&lt;span style=&quot;font-family: &amp;#34;consolas&amp;#34; , &amp;#34;courier new&amp;#34; , monospace&quot;&gt; !&lt;/span&gt;&lt;span style=&quot;font-family: &amp;#34;consolas&amp;#34; , &amp;#34;courier new&amp;#34; , monospace ; color: rgb(0 , 16 , 128)&quot;&gt;x&lt;/span&gt;&lt;span style=&quot;font-family: &amp;#34;consolas&amp;#34; , &amp;#34;courier new&amp;#34; , monospace&quot;&gt;)&lt;/span&gt;&lt;/div&gt;&lt;div style=&quot;background-color: rgb(255 , 255 , 255) ; font-family: &amp;#34;consolas&amp;#34; , &amp;#34;courier new&amp;#34; , monospace ; font-size: 14px ; line-height: 19px&quot;&gt;&lt;span style=&quot;font-family: &amp;#34;consolas&amp;#34; , &amp;#34;courier new&amp;#34; , monospace&quot;&gt;&lt;br&gt;&lt;/span&gt;&lt;/div&gt;&lt;div style=&quot;background-color: rgb(255 , 255 , 255) ; font-family: &amp;#34;consolas&amp;#34; , &amp;#34;courier new&amp;#34; , monospace ; font-size: 14px ; line-height: 19px&quot;&gt;&lt;span style=&quot;font-family: &amp;#34;consolas&amp;#34; , &amp;#34;courier new&amp;#34; , monospace&quot;&gt;&amp;nbsp;&amp;nbsp;&lt;/span&gt;&lt;/div&gt;&lt;div style=&quot;background-color: rgb(255 , 255 , 255) ; font-family: &amp;#34;consolas&amp;#34; , &amp;#34;courier new&amp;#34; , monospace ; font-size: 14px ; line-height: 19px&quot;&gt;&lt;br&gt;&lt;/div&gt;" style="text;html=1;strokeColor=#B09500;fillColor=#FFFF99;align=left;verticalAlign=middle;whiteSpace=wrap;rounded=0;fontSize=12;fontColor=#000000;" vertex="1" parent="4">
                    <mxGeometry y="240" width="300" height="150" as="geometry"/>
                </mxCell>
                <mxCell id="10" value="Show / Hide Comments" style="rounded=1;whiteSpace=wrap;html=1;fontSize=13;strokeColor=#2D7600;fillColor=#60a917;fontStyle=1;fontColor=#ffffff;" vertex="1" parent="4">
                    <mxGeometry x="10" y="330" width="150" height="40" as="geometry"/>
                </mxCell>
                <mxCell id="13" value="" style="edgeStyle=elbowEdgeStyle;elbow=horizontal;endArrow=classic;html=1;fontSize=13;exitX=0.999;exitY=0.449;exitDx=0;exitDy=0;exitPerimeter=0;entryX=1.012;entryY=0.123;entryDx=0;entryDy=0;entryPerimeter=0;fillColor=#e51400;strokeColor=#B20000;" edge="1" parent="4" source="5" target="9">
                    <mxGeometry width="50" height="50" relative="1" as="geometry">
                        <mxPoint x="320" y="200" as="sourcePoint"/>
                        <mxPoint x="310" y="264" as="targetPoint"/>
                        <Array as="points">
                            <mxPoint x="390" y="180"/>
                            <mxPoint x="370" y="180"/>
                        </Array>
                    </mxGeometry>
                </mxCell>
                <mxCell id="14" value="&lt;div style=&quot;color: rgb(0, 0, 0); background-color: rgb(255, 255, 255); font-family: consolas, &amp;quot;courier new&amp;quot;, monospace; font-weight: normal; font-size: 14px; line-height: 19px;&quot;&gt;&lt;div&gt;&lt;span style=&quot;color: #000000&quot;&gt;&amp;nbsp; &amp;nbsp; &amp;nbsp; &amp;nbsp; &amp;nbsp; &amp;nbsp; &amp;nbsp; &amp;nbsp; &lt;/span&gt;&lt;span style=&quot;color: #0000ff&quot;&gt;{&lt;/span&gt;&lt;span style=&quot;color: #0070c1&quot;&gt;showComments&lt;/span&gt;&lt;span style=&quot;color: #000000&quot;&gt; &amp;amp;&amp;amp; &lt;/span&gt;&lt;span style=&quot;color: #800000&quot;&gt;&amp;lt;&lt;/span&gt;&lt;span style=&quot;color: #267f99&quot;&gt;NewComment&lt;/span&gt;&lt;span style=&quot;color: #000000&quot;&gt; &lt;/span&gt;&lt;span style=&quot;color: #ff0000&quot;&gt;onAddComment&lt;/span&gt;&lt;span style=&quot;color: #000000&quot;&gt;=&lt;/span&gt;&lt;span style=&quot;color: #0000ff&quot;&gt;{&lt;/span&gt;&lt;span style=&quot;color: #795e26&quot;&gt;addCommentHandler&lt;/span&gt;&lt;span style=&quot;color: #0000ff&quot;&gt;}&lt;/span&gt;&lt;span style=&quot;color: #000000&quot;&gt; &amp;nbsp;&lt;/span&gt;&lt;span style=&quot;color: #800000&quot;&gt;/&amp;gt;&lt;/span&gt;&lt;span style=&quot;color: #0000ff&quot;&gt;}&lt;/span&gt;&lt;/div&gt;&lt;div&gt;&lt;span style=&quot;color: #000000&quot;&gt;&amp;nbsp; &amp;nbsp; &amp;nbsp; &amp;nbsp; &amp;nbsp; &amp;nbsp; &amp;nbsp; &amp;nbsp; &lt;/span&gt;&lt;span style=&quot;color: #0000ff&quot;&gt;{&lt;/span&gt;&lt;span style=&quot;color: #0070c1&quot;&gt;showComments&lt;/span&gt;&lt;span style=&quot;color: #000000&quot;&gt; &amp;amp;&amp;amp; &lt;/span&gt;&lt;span style=&quot;color: #800000&quot;&gt;&amp;lt;&lt;/span&gt;&lt;span style=&quot;color: #267f99&quot;&gt;CommentList&lt;/span&gt;&lt;span style=&quot;color: #000000&quot;&gt; &lt;/span&gt;&lt;span style=&quot;color: #800000&quot;&gt;/&amp;gt;&lt;/span&gt;&lt;span style=&quot;color: #0000ff&quot;&gt;}&lt;/span&gt;&lt;/div&gt;&lt;/div&gt;" style="text;whiteSpace=wrap;html=1;fontSize=13;align=left;strokeColor=#B09500;dashed=1;fillColor=#FFFF99;fontColor=#000000;" vertex="1" parent="1">
                    <mxGeometry x="40" y="500" width="650" height="50" as="geometry"/>
                </mxCell>
            </root>
        </mxGraphModel>
    </diagram>
</mxfile>